<?xml version="1.0" encoding="UTF-8"?>
<svg width="73px" height="73px" viewBox="0 0 73 73" version="1.1" xmlns="http://www.w3.org/2000/svg" xmlns:xlink="http://www.w3.org/1999/xlink">
    <!-- Generator: Sketch 43.2 (39069) - http://www.bohemiancoding.com/sketch -->
    <title>Gun pointed icon</title>
    <desc>Created with Sketch.</desc>
    <defs></defs>
    <g id="Page-1" stroke="none" stroke-width="1" fill="none" fill-rule="evenodd">
        <g id="HUB-MantisX-Rules" transform="translate(-411.000000, -473.000000)">
            <g id="Group-5" transform="translate(411.000000, 461.000000)">
                <g id="Gun-Pointed-Icon" transform="translate(0.000000, 12.000000)">
                    <path d="M73,35.2178586 L64.6979889,35.2178586 C64.0453675,20.6476043 52.352033,8.9544752 37.7815228,8.30314739 L37.7815228,0 L35.217195,0 L35.217195,8.30314739 C20.647967,8.9544752 8.95463248,20.6476043 8.30201107,35.2178586 L0,35.2178586 L0,37.7821414 L8.30201107,37.7821414 C8.95463248,52.3523957 20.647967,64.0455248 35.217195,64.6968526 L35.217195,73 L37.7815228,73 L37.7815228,64.6968526 C52.352033,64.0455248 64.0453675,52.3523957 64.6979889,37.7821414 L73,37.7821414 L73,35.2178586 Z" id="Fill-1-Copy-3" fill="#FEFEFE"></path>
                    <path d="M38.0508854,39.019102 C37.2269239,39.8074919 36.3152337,39.7206648 36.3152337,39.7206648 C36.3152337,39.7206648 32.4104472,39.6755148 32.0182484,39.6321012 C31.6724942,39.6321012 31.498757,39.5886877 31.498757,39.5886877 C30.4563338,39.3264699 30.0658552,38.4495162 30.0658552,38.4495162 C29.8491137,37.9233441 29.892118,37.9684942 29.8491137,37.1783677 C29.8491137,36.3465641 29.9368424,36.0843463 30.0658552,35.6901513 C30.1965881,35.2959563 30.8468125,34.637807 31.8015069,34.5075664 C32.7562014,34.3755892 35.3605392,34.7263706 35.3605392,34.7263706 C35.4912721,35.7769784 35.2298062,36.8293227 35.2298062,36.8293227 L33.6248874,38.5380799 L33.6248874,38.6683205 C33.5818832,38.9322749 33.7556203,39.019102 33.7556203,39.019102 L33.9723618,39.019102 C34.0153661,39.019102 34.0153661,39.0625155 34.0153661,39.0625155 C33.9276374,39.1944927 33.9723618,39.2813198 33.9723618,39.2813198 C34.0583703,39.4132969 34.1891032,39.4132969 34.1891032,39.4132969 C34.4918532,39.3698834 35.0130648,39.0625155 35.0130648,39.0625155 C36.0107635,38.5380799 36.6197038,37.6611263 36.6197038,37.6611263 C36.7487166,37.6611263 36.7917208,37.5742992 36.8364452,37.4857355 C36.8794495,37.3989085 36.8364452,37.2235177 36.8364452,37.2235177 C36.8364452,37.1783677 36.8794495,37.1349541 36.8794495,37.1349541 L38.1816184,36.8293227 L38.2246226,36.8293227 L38.3553556,36.6973456 L38.3553556,36.653932 C38.3553556,36.6105185 38.1816184,36.214587 38.1816184,36.214587 L38.4843683,35.9523691 C38.4843683,35.9523691 38.7458342,36.259737 38.7458342,37.1783677 C38.8318427,38.3626892 38.0508854,39.019102 38.0508854,39.019102 M53.7594801,31.8350285 C53.6734716,31.6596378 53.2829929,31.1768792 53.1952643,31.1334656 L53.15226,31.1334656 L53.15226,30.3884892 C53.15226,30.3884892 53.15226,30.3450757 53.1092557,30.3450757 L53.1092557,30.1262714 L53.1952643,30.1262714 L53.2382685,30.1262714 L53.2382685,26.7521707 C53.2382685,26.7521707 53.2382685,26.3145621 53.0645313,26.1843215 C52.8925143,26.0523443 52.8925143,26.0523443 52.8047856,26.0523443 L51.2858753,26.0523443 C51.2858753,26.0523443 51.0261296,25.2205408 50.9384009,25.0885636 L50.2881766,25.0885636 L50.1574436,25.1753907 L50.1574436,25.2205408 L50.0714351,25.2205408 L49.9837064,25.3507814 L49.766965,26.0089308 L46.3833901,26.0089308 L43.7360481,26.0089308 L39.5697958,25.9637807 L37.4436653,25.9637807 L37.4436653,26.0089308 L37.4436653,26.0523443 L37.3559367,26.0523443 L37.3129324,26.0523443 L34.2321075,26.0089308 L32.2797143,26.1391714 L32.23671,26.1391714 L31.4110283,26.1391714 C31.4110283,26.1391714 31.3250198,26.0957579 31.3250198,26.0523443 L31.3250198,25.9203672 L31.2820155,25.9203672 L28.7636863,25.9203672 L26.3348059,25.9203672 L22.2115578,25.8335401 L21.9948164,25.8335401 L21.7350707,25 L21.0831262,25 L20.3451731,25.78839 L19.868686,25.78839 C19.868686,25.78839 19.737953,25.78839 19.6089403,26.0089308 L19.5212116,26.1391714 L19.5212116,26.3579757 L19.5212116,26.7087571 L19.2614659,26.7087571 C19.2614659,26.7087571 19.1737372,26.7087571 19.0877287,26.8841479 C19,27.016125 19,28.0667328 19,28.0667328 L19,28.8117093 C19,28.8117093 19.0447244,29.2493178 19.0877287,29.381295 C19.1307329,29.5132721 19.2184616,29.5566857 19.2184616,29.5566857 L19.4352031,29.5566857 L19.4352031,30.4770528 C19.4352031,30.4770528 19.3474744,30.4770528 19.3474744,30.5638799 C19.3474744,30.6524436 19.2614659,30.8712478 19.2614659,31.0900521 C19.2614659,31.3088564 19.2184616,32.0538328 19.2614659,32.3160506 C19.3044701,32.580005 19.3044701,32.7553957 19.4352031,32.7553957 L19.5212116,32.7553957 C19.5212116,32.7553957 19.5642158,33.061027 19.6519445,33.1495907 C19.6519445,33.1495907 19.6519445,33.7625899 20.1731561,33.8928306 C20.1731561,33.8928306 21.1708548,34.0248077 22.385295,34.0682213 C23.5997352,34.1567849 23.6874639,34.1567849 23.6874639,34.1567849 L26.1610687,34.243612 L27.2017717,34.243612 C27.2895004,34.243612 27.8089918,34.3755892 28.0274534,34.5943935 C28.2871991,34.8131977 28.8084107,35.2073927 28.9821479,35.9957827 C28.9821479,35.9957827 29.0251522,36.214587 29.0251522,36.4785413 L29.0251522,38.0987348 C29.0251522,38.0987348 28.9374235,39.2379062 28.7636863,39.6755148 C28.5916693,40.1582734 28.720682,40.3336641 29.0681564,40.4204912 L31.6277698,40.5090548 L34.4918532,40.5524684 L36.9224538,40.5958819 C36.9224538,40.5958819 37.6604068,40.5524684 38.2246226,40.2451005 C38.2246226,40.2451005 39.2223214,39.6321012 40.0032787,40.2902506 C40.0032787,40.2902506 40.3507531,40.5090548 40.5244903,40.8598363 C40.6982274,41.2088812 40.8719646,41.7784669 40.9149689,41.823617 L40.9579732,41.823617 L41.0009774,41.9104441 L40.9579732,41.9104441 L41.0457018,42.0858348 L41.0887061,42.0858348 L41.1747146,42.304639 L41.1317103,42.3480526 L41.219439,42.4800298 L41.2624433,42.5234433 L41.3484518,42.698834 L41.3484518,42.7422476 L41.4361805,42.9176383 L41.3054475,42.9176383 L41.3914561,43.1364426 L41.3914561,43.1815927 L41.4791847,43.3118333 L41.522189,43.3118333 L41.6099177,43.5306376 L41.5651932,43.5757876 L41.6529219,43.7494418 L41.6959262,43.7494418 L41.7836549,43.9699826 L41.8696634,44.1453734 L41.9126676,44.1453734 L42.0003963,44.3641776 L42.0864048,44.5395683 L42.1294091,44.5395683 L42.2171378,44.7583726 L42.2171378,44.8017862 L42.260142,44.9771769 L42.3031463,44.9771769 L42.1741335,45.2393947 L42.1294091,45.2828082 L42.2171378,45.458199 L42.260142,45.458199 L42.3461505,45.6770032 L42.3461505,45.7221533 L42.4338792,45.897544 L42.4768835,45.9409576 L42.5198877,46.1163483 L42.5198877,46.1597618 L42.6076164,46.3351526 L42.6506207,46.3351526 L42.6936249,46.5105433 L42.6936249,46.5539568 L42.7813536,46.685934 L42.8243579,46.7293476 L42.8243579,46.7727611 L42.8243579,46.8161746 L43.0410993,47.474324 C43.0410993,47.474324 43.0841036,47.5611511 43.1718323,47.6045646 L43.1718323,47.6497147 C43.1718323,47.6497147 42.9550908,47.7365418 43.0410993,47.9987596 C43.0410993,47.9987596 43.1718323,48.5683453 43.3885737,48.9191268 C43.3885737,48.9191268 43.5193066,49.137931 43.9527895,49.137931 C44.3862724,49.137931 45.7744498,49.0511039 46.2096529,49.0076904 C46.6431358,48.9625403 48.2050504,48.8322997 48.2050504,48.8322997 L49.4194906,48.743736 L50.5926467,48.656909 L51.8930954,48.5683453 C51.8930954,48.5683453 52.1975655,48.5249318 52.2405698,48.2193004 L52.2405698,47.9987596 C52.2405698,47.9987596 52.1975655,47.7365418 52.1098368,47.5611511 C52.1098368,47.5611511 52.1098368,47.5177375 52.0238283,47.4309104 C51.9808241,47.3423468 51.6763539,46.9047383 51.6763539,46.9047383 L51.6763539,46.8613247 L51.8930954,46.8613247 C51.8930954,46.8613247 52.0238283,47.1669561 52.0668326,47.2989333 C52.1098368,47.3857604 52.1975655,47.5611511 52.283574,47.5611511 C52.414307,47.5611511 52.5020357,47.474324 52.5020357,47.474324 L52.5880442,47.7365418 C52.5880442,47.7365418 52.6740527,47.868519 52.8477899,47.8251054 C53.0645313,47.7799553 53.7594801,47.2555197 53.8024844,47.1669561 C53.8472088,47.080129 53.890213,47.0367155 53.8472088,46.291739 C53.8024844,45.5901761 53.7164758,45.1091541 53.7164758,45.1091541 L53.6734716,45.064004 L53.6734716,45.0205904 L53.6734716,44.9771769 L53.6734716,44.8451997 L53.5857429,44.8017862 L53.5427387,44.5829819 L53.5427387,44.5395683 C53.5427387,44.5395683 53.5427387,44.4075912 53.4997344,44.4075912 C53.4997344,44.4075912 53.4567301,44.275614 53.4567301,44.1887869 L53.4567301,44.1453734 L53.4567301,44.0133962 L53.4120057,43.9699826 L53.3259972,43.7494418 L53.3259972,43.7060283 L53.2829929,43.5757876 L53.2382685,43.5757876 C53.2382685,43.5757876 53.2382685,43.487224 53.15226,43.3552468 L53.15226,43.3118333 L53.1092557,43.1815927 L53.0662515,43.1364426 L53.0215271,42.9610518 L53.0215271,42.9176383 L52.9785228,42.7873977 L52.9355186,42.7873977 L52.8477899,42.5668569 L52.8477899,42.5234433 L52.7617814,42.3914661 L52.7187771,42.3480526 L52.6310484,42.1726619 L52.6310484,42.1292483 L52.5450399,41.9972711 L52.5020357,41.9972711 L52.3713027,41.7784669 L52.3713027,41.7350533 L52.283574,41.6030762 L52.2405698,41.5596626 L52.1545613,41.4276854 L52.1545613,41.3842719 L52.0668326,41.2540313 L52.0238283,41.2540313 L51.8930954,41.0786405 L51.8930954,41.0334904 L51.7640826,40.8598363 L51.7193582,40.8598363 L51.5903454,40.6844455 L51.5903454,40.6392955 L51.5026167,40.5090548 L51.4596125,40.5090548 L51.3288795,40.3336641 L51.3288795,40.2902506 L51.242871,40.1582734 L51.1998668,40.1582734 L51.0691338,39.9394691 L51.0691338,39.8960556 L50.9831253,39.7640784 L50.9384009,39.7640784 L50.8523924,39.500124 L50.8523924,39.4567105 L50.7646637,39.3264699 L50.7216595,39.3264699 L50.6356509,39.105929 L50.6356509,39.0625155 L50.5479223,38.9322749 L50.504918,38.9322749 L50.4189095,38.7117341 L50.4189095,38.6683205 L50.3741851,38.5380799 L50.3311808,38.5380799 L50.2451723,38.3175391 L50.2451723,38.2741255 L50.202168,38.1421484 L50.1574436,38.1421484 L50.0714351,37.9233441 L50.0714351,37.8799305 L50.0284308,37.7479534 L49.9837064,37.7045398 L49.9837064,37.4857355 L49.9837064,37.442322 L49.9407022,37.3103448 L49.8976979,37.2669313 L49.8546936,37.048127 L49.8546936,37.0047135 L49.8099692,36.8727363 L49.766965,36.8727363 L49.766965,36.8293227 C49.766965,36.8293227 49.5502235,36.1711734 49.766965,35.2508063 C50.0284308,34.0248077 50.9831253,33.3249814 51.4166082,33.1495907 C51.8070869,32.9290499 52.2405698,32.7553957 52.8477899,32.7553957 C52.9785228,32.7553957 53.3690015,32.7553957 53.4997344,32.7988092 C53.6287472,32.8422228 53.890213,32.8422228 53.9762216,32.580005 C54.0639502,32.18581 53.890213,32.0104193 53.7594801,31.8350285" id="Fill-1" fill="#1F1C18" transform="translate(36.500000, 37.068966) scale(-1, 1) translate(-36.500000, -37.068966) "></path>
                </g>
            </g>
        </g>
    </g>
</svg>