<?xml version="1.0" encoding="UTF-8"?>
<svg width="73px" height="73px" viewBox="0 0 73 73" version="1.1" xmlns="http://www.w3.org/2000/svg" xmlns:xlink="http://www.w3.org/1999/xlink">
    <!-- Generator: Sketch 43.2 (39069) - http://www.bohemiancoding.com/sketch -->
    <title>triger icon</title>
    <desc>Created with Sketch.</desc>
    <defs>
        <path d="M73,35.2178586 L64.6979889,35.2178586 C64.0453675,20.6476043 52.352033,8.9544752 37.7815228,8.30314739 L37.7815228,0 L35.217195,0 L35.217195,8.30314739 C20.647967,8.9544752 8.95463248,20.6476043 8.30201107,35.2178586 L0,35.2178586 L0,37.7821414 L8.30201107,37.7821414 C8.95463248,52.3523957 20.647967,64.0455248 35.217195,64.6968526 L35.217195,73 L37.7815228,73 L37.7815228,64.6968526 C52.352033,64.0455248 64.0453675,52.3523957 64.6979889,37.7821414 L73,37.7821414 L73,35.2178586 Z" id="path-1"></path>
    </defs>
    <g id="Page-1" stroke="none" stroke-width="1" fill="none" fill-rule="evenodd">
        <g id="HUB-MantisX-Rules" transform="translate(-802.000000, -473.000000)">
            <g id="Group-5" transform="translate(411.000000, 461.000000)">
                <g id="finger" transform="translate(391.000000, 12.000000)">
                    <g id="Fill-1-Copy">
                        <mask id="mask-2" fill="white">
                            <use xlink:href="#path-1"></use>
                        </mask>
                        <use id="Mask" fill="#FEFEFE" xlink:href="#path-1"></use>
                        <path d="M38.8610625,39.8429496 C37.8723087,40.7901439 36.7782804,40.6858273 36.7782804,40.6858273 C36.7782804,40.6858273 32.0925367,40.6315827 31.6218981,40.5794245 C31.206993,40.5794245 30.9985084,40.5272662 30.9985084,40.5272662 C29.7476006,40.2122302 29.2790262,39.1586331 29.2790262,39.1586331 C29.0189365,38.5264748 29.0705416,38.5807194 29.0189365,37.6314388 C29.0189365,36.6320863 29.1242109,36.3170504 29.2790262,35.8434532 C29.4359057,35.3698561 30.216175,34.5791367 31.3618083,34.4226619 C32.5074417,34.2641007 35.632647,34.6855396 35.632647,34.6855396 C35.7895265,35.9477698 35.4757675,37.2120863 35.4757675,37.2120863 L33.5498649,39.265036 L33.5498649,39.4215108 C33.4982598,39.7386331 33.7067444,39.8429496 33.7067444,39.8429496 L33.9668342,39.8429496 C34.0184393,39.8429496 34.0184393,39.8951079 34.0184393,39.8951079 C33.9131648,40.0536691 33.9668342,40.1579856 33.9668342,40.1579856 C34.0700444,40.3165468 34.2269239,40.3165468 34.2269239,40.3165468 C34.5902239,40.2643885 35.2156778,39.8951079 35.2156778,39.8951079 C36.4129162,39.265036 37.1436446,38.2114388 37.1436446,38.2114388 C37.2984599,38.2114388 37.350065,38.1071223 37.4037343,38.0007194 C37.4553394,37.8964029 37.4037343,37.6856835 37.4037343,37.6856835 C37.4037343,37.6314388 37.4553394,37.5792806 37.4553394,37.5792806 L39.0179421,37.2120863 L39.0695472,37.2120863 L39.2264267,37.0535252 L39.2264267,37.0013669 C39.2264267,36.9492086 39.0179421,36.4735252 39.0179421,36.4735252 L39.381242,36.1584892 C39.381242,36.1584892 39.6950011,36.5277698 39.6950011,37.6314388 C39.7982113,39.0543165 38.8610625,39.8429496 38.8610625,39.8429496 M57.7113761,31.2117986 C57.6081659,31.0010791 57.1395915,30.4210791 57.0343171,30.3689209 L56.982712,30.3689209 L56.982712,29.4738849 C56.982712,29.4738849 56.982712,29.4217266 56.9311069,29.4217266 L56.9311069,29.1588489 L57.0343171,29.1588489 L57.0859222,29.1588489 L57.0859222,25.1051079 C57.0859222,25.1051079 57.0859222,24.5793525 56.8774376,24.4228777 C56.6710172,24.2643165 56.6710172,24.2643165 56.5657427,24.2643165 L54.7430503,24.2643165 C54.7430503,24.2643165 54.4313555,23.264964 54.3260811,23.1064029 L53.5458119,23.1064029 L53.3889323,23.2107194 L53.3889323,23.264964 L53.2857221,23.264964 L53.1804477,23.4214388 L52.920358,24.2121583 L48.8600681,24.2121583 L45.6832577,24.2121583 L40.6837549,24.1579137 L38.1323984,24.1579137 L38.1323984,24.2121583 L38.1323984,24.2643165 L38.027124,24.2643165 L37.9755189,24.2643165 L34.278529,24.2121583 L31.9356571,24.3686331 L31.884052,24.3686331 L30.893234,24.3686331 C30.893234,24.3686331 30.7900237,24.3164748 30.7900237,24.2643165 L30.7900237,24.1057554 L30.7384186,24.1057554 L27.7164236,24.1057554 L24.8017671,24.1057554 L19.8538694,24.0014388 L19.5937797,24.0014388 L19.2820848,23 L18.4997514,23 L17.6142078,23.9471942 L17.0424232,23.9471942 C17.0424232,23.9471942 16.8855436,23.9471942 16.7307283,24.2121583 L16.6254539,24.3686331 L16.6254539,24.6315108 L16.6254539,25.0529496 L16.3137591,25.0529496 C16.3137591,25.0529496 16.2084846,25.0529496 16.1052744,25.2636691 C16,25.4222302 16,26.6844604 16,26.6844604 L16,27.5794964 C16,27.5794964 16.0536693,28.1052518 16.1052744,28.2638129 C16.1568795,28.4223741 16.2621539,28.4745324 16.2621539,28.4745324 L16.5222437,28.4745324 L16.5222437,29.5802878 C16.5222437,29.5802878 16.4169693,29.5802878 16.4169693,29.6846043 C16.4169693,29.7910072 16.3137591,30.0538849 16.3137591,30.3167626 C16.3137591,30.5796403 16.2621539,31.4746763 16.3137591,31.7897122 C16.3653642,32.1068345 16.3653642,32.317554 16.5222437,32.317554 L16.6254539,32.317554 C16.6254539,32.317554 16.677059,32.6847482 16.7823334,32.7911511 C16.7823334,32.7911511 16.7823334,33.5276259 17.4077873,33.6841007 C17.4077873,33.6841007 18.6050258,33.8426619 20.062354,33.8948201 C21.5196823,34.001223 21.6249567,34.001223 21.6249567,34.001223 L24.5932825,34.1055396 L25.8421261,34.1055396 C25.9474005,34.1055396 26.5707902,34.2641007 26.8329441,34.5269784 C27.144639,34.7898561 27.7700929,35.2634532 27.9785775,36.2106475 C27.9785775,36.2106475 28.0301826,36.4735252 28.0301826,36.7906475 L28.0301826,38.7371942 C28.0301826,38.7371942 27.9249082,40.1058273 27.7164236,40.6315827 C27.5100031,41.2115827 27.6648185,41.4223022 28.0817877,41.5266187 L31.1533237,41.6330216 L34.5902239,41.6851799 L37.5069445,41.7373381 C37.5069445,41.7373381 38.3924882,41.6851799 39.0695472,41.3158993 C39.0695472,41.3158993 40.2667857,40.5794245 41.2039344,41.3701439 C41.2039344,41.3701439 41.6209037,41.6330216 41.8293883,42.0544604 C42.0378729,42.4738129 42.2463576,43.1581295 42.2979627,43.2123741 L42.3495678,43.2123741 L42.4011729,43.3166906 L42.3495678,43.3166906 L42.4548422,43.5274101 L42.5064473,43.5274101 L42.6096575,43.7902878 L42.5580524,43.842446 L42.6633268,44.0010072 L42.7149319,44.0531655 L42.8181422,44.2638849 L42.8181422,44.3160432 L42.9234166,44.5267626 L42.766537,44.5267626 L42.8697473,44.7896403 L42.8697473,44.8438849 L42.9750217,45.0003597 L43.0266268,45.0003597 L43.1319012,45.2632374 L43.0782319,45.317482 L43.1835063,45.5261151 L43.2351114,45.5261151 L43.3403858,45.7910791 L43.4435961,46.0017986 L43.4952012,46.0017986 L43.6004756,46.2646763 L43.7036858,46.4753957 L43.7552909,46.4753957 L43.8605653,46.7382734 L43.8605653,46.7904317 L43.9121704,47.0011511 L43.9637755,47.0011511 L43.8089602,47.3161871 L43.7552909,47.3683453 L43.8605653,47.5790647 L43.9121704,47.5790647 L44.0153806,47.8419424 L44.0153806,47.8961871 L44.1206551,48.1069065 L44.1722602,48.1590647 L44.2238653,48.3697842 L44.2238653,48.4219424 L44.3291397,48.6326619 L44.3807448,48.6326619 L44.4323499,48.8433813 L44.4323499,48.8955396 L44.5376243,49.0541007 L44.5892294,49.106259 L44.5892294,49.1584173 L44.5892294,49.2105755 L44.8493192,50.001295 C44.8493192,50.001295 44.9009243,50.1056115 45.0061987,50.1577698 L45.0061987,50.2120144 C45.0061987,50.2120144 44.746109,50.3163309 44.8493192,50.6313669 C44.8493192,50.6313669 45.0061987,51.3156835 45.2662884,51.7371223 C45.2662884,51.7371223 45.423168,52 45.9433475,52 C46.4635269,52 48.1293398,51.8956835 48.6515835,51.8435252 C49.171763,51.7892806 51.0460605,51.6328058 51.0460605,51.6328058 L52.5033887,51.5264029 L53.911176,51.4220863 L55.4717145,51.3156835 C55.4717145,51.3156835 55.8370786,51.2635252 55.8886837,50.8963309 L55.8886837,50.6313669 C55.8886837,50.6313669 55.8370786,50.3163309 55.7318042,50.1056115 C55.7318042,50.1056115 55.7318042,50.0534532 55.628594,49.9491367 C55.5769889,49.8427338 55.2116247,49.3169784 55.2116247,49.3169784 L55.2116247,49.2648201 L55.4717145,49.2648201 C55.4717145,49.2648201 55.628594,49.6320144 55.6801991,49.7905755 C55.7318042,49.8948921 55.8370786,50.1056115 55.9402888,50.1056115 C56.0971684,50.1056115 56.2024428,50.001295 56.2024428,50.001295 L56.305653,50.3163309 C56.305653,50.3163309 56.4088632,50.4748921 56.6173478,50.4227338 C56.8774376,50.3684892 57.7113761,49.7384173 57.7629812,49.6320144 C57.8166505,49.5276978 57.8682556,49.4755396 57.8166505,48.5805036 C57.7629812,47.7376259 57.659771,47.1597122 57.659771,47.1597122 L57.6081659,47.1054676 L57.6081659,47.0533094 L57.6081659,47.0011511 L57.6081659,46.8425899 L57.5028915,46.7904317 L57.4512864,46.527554 L57.4512864,46.4753957 C57.4512864,46.4753957 57.4512864,46.3168345 57.3996813,46.3168345 C57.3996813,46.3168345 57.3480762,46.1582734 57.3480762,46.0539568 L57.3480762,46.0017986 L57.3480762,45.8432374 L57.2944069,45.7910791 L57.1911966,45.5261151 L57.1911966,45.4739568 L57.1395915,45.317482 L57.0859222,45.317482 C57.0859222,45.317482 57.0859222,45.2110791 56.982712,45.052518 L56.982712,45.0003597 L56.9311069,44.8438849 L56.8795018,44.7896403 L56.8258325,44.5789209 L56.8258325,44.5267626 L56.7742274,44.3702878 L56.7226223,44.3702878 L56.6173478,44.1053237 L56.6173478,44.0531655 L56.5141376,43.8946043 L56.4625325,43.842446 L56.3572581,43.6317266 L56.3572581,43.5795683 L56.2540479,43.4210072 L56.2024428,43.4210072 L56.0455633,43.1581295 L56.0455633,43.1059712 L55.9402888,42.9474101 L55.8886837,42.8952518 L55.7854735,42.7366906 L55.7854735,42.6845324 L55.6801991,42.5280576 L55.628594,42.5280576 L55.4717145,42.3173381 L55.4717145,42.2630935 L55.3168991,42.0544604 L55.2632298,42.0544604 L55.1084145,41.843741 L55.1084145,41.7894964 L55.0031401,41.6330216 L54.951535,41.6330216 L54.7946555,41.4223022 L54.7946555,41.3701439 L54.6914452,41.2115827 L54.6398401,41.2115827 L54.4829606,40.948705 L54.4829606,40.8965468 L54.3797504,40.7379856 L54.3260811,40.7379856 L54.2228709,40.4208633 L54.2228709,40.368705 L54.1175964,40.2122302 L54.0659913,40.2122302 L53.9627811,39.9472662 L53.9627811,39.8951079 L53.8575067,39.7386331 L53.8059016,39.7386331 L53.7026914,39.4736691 L53.7026914,39.4215108 L53.6490221,39.265036 L53.597417,39.265036 L53.4942068,39.0000719 L53.4942068,38.9479137 L53.4426016,38.7893525 L53.3889323,38.7893525 L53.2857221,38.5264748 L53.2857221,38.4743165 L53.234117,38.3157554 L53.1804477,38.2635971 L53.1804477,38.0007194 L53.1804477,37.9485612 L53.1288426,37.79 L53.0772375,37.7378417 L53.0256324,37.474964 L53.0256324,37.4228058 L52.9719631,37.2642446 L52.920358,37.2642446 L52.920358,37.2120863 C52.920358,37.2120863 52.6602682,36.4213669 52.920358,35.3156115 C53.234117,33.8426619 54.3797504,33.0018705 54.8999299,32.7911511 C55.3685043,32.5261871 55.8886837,32.317554 56.6173478,32.317554 C56.7742274,32.317554 57.2428017,32.317554 57.3996813,32.3697122 C57.5544966,32.4218705 57.8682556,32.4218705 57.9714659,32.1068345 C58.0767403,31.6332374 57.8682556,31.422518 57.7113761,31.2117986" fill="#1F1C18" mask="url(#mask-2)" transform="translate(37.000000, 37.500000) scale(-1, 1) translate(-37.000000, -37.500000) "></path>
                        <g id="Group-5" mask="url(#mask-2)">
                            <g transform="translate(27.500000, 46.500000) rotate(64.000000) translate(-27.500000, -46.500000) translate(16.000000, 24.000000)">
                                <path d="M22.53015,29.160544 C22.51565,28.6942253 22.50415,28.2719176 22.49165,27.8070824 C22.43665,25.7613132 22.40065,24.4098297 22.11615,23.6413681 C21.92365,23.1216429 21.61115,22.7779615 20.43715,22.3427967 L19.79015,22.1168077 L19.79965,21.4427967 L19.80015,21.4358736 L19.79965,21.4289505 C19.79715,21.3379615 19.76265,20.5175769 19.35215,19.7461484 C18.83465,18.773456 17.95365,18.3007088 16.65765,18.3007088 C16.49815,18.3007088 16.33115,18.3081264 16.16215,18.322467 L15.38715,18.4129615 L15.15415,17.686533 L15.14715,17.6677418 C15.09415,17.5317527 14.88365,17.0535659 14.40365,16.607522 C13.79265,16.0398297 12.97315,15.7396648 12.03265,15.7396648 C11.99515,15.7396648 11.95715,15.7401593 11.91915,15.7411484 C10.23415,15.7807088 9.50165,16.6460934 9.37215,16.8191703 L9.35915,16.8369725 L7.90215,19.4583462 L7.55165,16.431478 C7.52515,16.205489 6.90765,10.8618626 6.79115,8.32356593 C6.77015,7.86515934 6.78365,7.31922527 6.79915,6.68329121 C6.83465,5.2338956 6.87965,3.43043407 6.50065,2.03296154 C5.97665,0.0979615385 4.37715,4.94505494e-05 4.06215,4.94505494e-05 C3.06865,4.94505494e-05 2.36865,0.267576923 1.79315,0.867906593 C0.98115,1.7145 0.82365,3.00911538 0.85365,3.57532418 C0.91215,4.67312637 1.13565,28.1235659 1.14515,29.121478 L1.16115,29.5081813 L0.88715,29.7870824 L0.87715,29.7979615 C0.74215,29.9482912 -0.42185,31.3155989 0.16315,33.0097747 C0.51415,34.025489 0.91365,34.9165879 1.26765,35.7058187 C1.72715,36.7304341 2.12365,37.6155989 2.23915,38.4137308 C2.33915,39.1070275 2.33865,41.1968077 2.23815,44.2978516 L2.22715,44.6316429 L20.26465,44.6445 L20.26465,38.0888407 L20.26215,37.7847198 L20.44465,37.530544 C20.45065,37.5226319 21.02015,36.7081813 21.56415,35.2409835 C22.44565,32.8643901 22.57565,30.6227967 22.53015,29.160544" id="Fill-1" fill="#FFFFFF"></path>
                                <path d="M19.9103,37.1575385 L19.6063,37.5798462 L19.6103,38.0911648 L19.6103,43.997044 L2.9028,43.9846813 C2.9693,41.8227033 3.0148,39.2107253 2.8868,38.3220989 C2.7588,37.4354505 2.3448,36.5122088 1.8643,35.4406154 C1.5173,34.6667143 1.1238,33.788967 0.7823,32.8009451 C0.3198,31.4608352 1.2773,30.3289121 1.3623,30.231989 L1.8263,29.7597363 L1.7993,29.1104505 C1.7893,28.0423187 1.5658,4.65121978 1.5068,3.54154945 C1.4883,3.18847253 1.5878,2.02193407 2.2678,1.31281319 C2.7218,0.840065934 3.2413,0.647208791 4.0618,0.647208791 C4.2933,0.647208791 5.4683,0.721879121 5.8688,2.20045055 C6.2233,3.50792308 6.1798,5.25946154 6.1448,6.66731868 L6.1448,6.67127473 C6.1293,7.31561538 6.1153,7.87193407 6.1373,8.35259341 C6.2553,10.9131429 6.8753,16.278033 6.9013,16.505011 L7.4863,21.5509451 L9.9098,17.1889121 C10.0133,17.0588571 10.5913,16.4194615 11.9343,16.3878132 C11.9678,16.3868242 12.0003,16.3868242 12.0323,16.3868242 C13.8613,16.3868242 14.4568,17.7017143 14.5338,17.8925934 L14.9268,19.1184725 L16.2233,18.9666593 C16.3723,18.9538022 16.5183,18.9473736 16.6578,18.9473736 C17.7163,18.9473736 18.3683,19.2866044 18.7728,20.0471538 C19.1078,20.6761648 19.1428,21.3635275 19.1453,21.4406703 L19.1293,22.5720989 L20.2103,22.9494066 C21.3153,23.3598462 21.4058,23.6046264 21.5018,23.8637473 C21.7493,24.5328132 21.7848,25.8422637 21.8378,27.8247363 C21.8503,28.2900659 21.8618,28.7128681 21.8763,29.1806703 C22.0288,34.0609451 19.9293,37.1303407 19.9103,37.1575385 M22.5303,29.1603956 C22.5158,28.6945714 22.5043,28.2717692 22.4918,27.8074286 C22.4368,25.7611648 22.4008,24.4096813 22.1163,23.6412198 C21.9238,23.1214945 21.6113,22.7783077 20.4373,22.3426484 L19.7903,22.1166593 L19.7998,21.4426484 L19.7998,21.4357253 L19.7998,21.4288022 C19.7973,21.3378132 19.7623,20.5174286 19.3518,19.746 C18.8348,18.7733077 17.9533,18.3005604 16.6578,18.3005604 C16.4983,18.3005604 16.3313,18.307978 16.1618,18.3223187 L15.3868,18.4128132 L15.1543,17.6863846 L15.1473,17.6675934 C15.0943,17.5316044 14.8838,17.0534176 14.4038,16.6073736 C13.7928,16.0396813 12.9728,15.7395165 12.0323,15.7395165 C11.9948,15.7395165 11.9573,15.740011 11.9188,15.741 C10.2338,15.7805604 9.5018,16.6459451 9.3723,16.819022 L9.3588,16.8368242 L7.9023,19.4586923 L7.5513,16.4313297 C7.5253,16.2053407 6.9078,10.8617143 6.7913,8.32341758 C6.7698,7.86501099 6.7833,7.31907692 6.7993,6.68314286 C6.8348,5.23374725 6.8793,3.43028571 6.5008,2.03330769 C5.9763,0.0978131868 4.3773,-9.89010989e-05 4.0618,-9.89010989e-05 C3.0688,-9.89010989e-05 2.3688,0.267428571 1.7933,0.867758242 C0.9808,1.71435165 0.8233,3.00896703 0.8538,3.57567033 C0.9118,4.67347253 1.1358,28.1234176 1.1453,29.1213297 L1.1613,29.508033 L0.8873,29.7869341 L0.8768,29.7978132 C0.7423,29.9481429 -0.4217,31.3154505 0.1633,33.0101209 C0.5138,34.0253407 0.9138,34.9164396 1.2673,35.7056703 C1.7268,36.7302857 2.1238,37.6154505 2.2393,38.4135824 C2.3393,39.1068791 2.3388,41.1966593 2.2383,44.2977033 L2.2273,44.6314945 L20.2648,44.6443516 L20.2648,38.0886923 L20.2623,37.7845714 L20.4448,37.5303956 C20.4508,37.5224835 21.0203,36.708033 21.5643,35.2413297 C22.4453,32.8642418 22.5758,30.6226484 22.5303,29.1603956" id="Fill-4" fill="#000000"></path>
                                <path d="M3.84815,1.3592967 C4.68465,1.3592967 5.09015,1.99424176 5.21815,2.24693407 C5.05915,3.74330769 4.61115,4.47072527 3.84815,4.47072527 C2.80415,4.47072527 2.59965,3.42435165 2.47815,2.24693407 C2.60615,1.99473626 3.01165,1.3592967 3.84815,1.3592967 M3.84815,4.79413187 C4.41265,4.79413187 4.84615,4.49792308 5.13765,3.91341758 C5.34065,3.50545055 5.47515,2.95605495 5.54815,2.23358242 L5.55265,2.18957143 L5.53365,2.14951648 C5.41065,1.88841758 4.92565,1.03589011 3.84815,1.03589011 C2.77065,1.03589011 2.28565,1.88792308 2.16265,2.14951648 L2.14365,2.18957143 L2.14815,2.23358242 C2.24515,3.19143956 2.40715,4.79413187 3.84815,4.79413187" id="Fill-7" fill="#000000"></path>
                            </g>
                        </g>
                    </g>
                </g>
            </g>
        </g>
    </g>
</svg>