<?xml version="1.0" encoding="UTF-8"?>
<svg width="73px" height="73px" viewBox="0 0 73 73" version="1.1" xmlns="http://www.w3.org/2000/svg" xmlns:xlink="http://www.w3.org/1999/xlink">
    <!-- Generator: Sketch 43.2 (39069) - http://www.bohemiancoding.com/sketch -->
    <title>unloaded icon</title>
    <desc>Created with Sketch.</desc>
    <defs>
        <polygon id="path-1" points="16.896814 30.7264706 33.7936279 30.7264706 33.7936279 0 0 0 0 15.3632353 0 30.7264706"></polygon>
    </defs>
    <g id="Page-1" stroke="none" stroke-width="1" fill="none" fill-rule="evenodd">
        <g id="HUB-MantisX-Rules" transform="translate(-1192.000000, -474.000000)">
            <g id="Group-5" transform="translate(411.000000, 461.000000)">
                <g id="unloaded-icon" transform="translate(781.000000, 13.000000)">
                    <path d="M73,35.2178586 L64.6979889,35.2178586 C64.0453675,20.6476043 52.352033,8.9544752 37.7815228,8.30314739 L37.7815228,0 L35.217195,0 L35.217195,8.30314739 C20.647967,8.9544752 8.95463248,20.6476043 8.30201107,35.2178586 L0,35.2178586 L0,37.7821414 L8.30201107,37.7821414 C8.95463248,52.3523957 20.647967,64.0455248 35.217195,64.6968526 L35.217195,73 L37.7815228,73 L37.7815228,64.6968526 C52.352033,64.0455248 64.0453675,52.3523957 64.6979889,37.7821414 L73,37.7821414 L73,35.2178586 Z" id="Fill-1-Copy-4" fill="#FEFEFE"></path>
                    <g id="Page-1" stroke-width="1" transform="translate(20.000000, 21.000000)">
                        <mask id="mask-2" fill="white">
                            <use xlink:href="#path-1"></use>
                        </mask>
                        <g id="Clip-2"></g>
                        <path d="M27.1849767,17.1867647 C24.6796512,17.9249294 22.0019535,16.6510118 21.2017674,14.3409647 C20.4015814,12.0305529 21.7825349,9.55967059 24.2870698,8.82114118 C26.7912093,8.08297647 29.4693023,9.35725882 30.2698837,11.6673059 C31.0704651,13.9777176 29.6887209,16.4482353 27.1849767,17.1867647 L27.1849767,17.1867647 Z M25.1046512,26.1246118 C22.9717442,27.5433176 19.9967442,27.0983765 18.4596279,25.1307882 C16.9213256,23.1628353 17.4036512,20.4191529 19.5365581,19.0008118 C21.6698605,17.5817412 24.6436744,18.0266824 26.1819767,19.9942706 C27.7194884,21.9622235 27.2371628,24.7059059 25.1046512,26.1246118 L25.1046512,26.1246118 Z M15.1264419,15.3632353 L16.896814,13.7300824 L18.667186,15.3632353 L16.896814,16.9963882 L15.1264419,15.3632353 Z M15.2549302,25.1224 C13.7043721,27.0808706 10.7266047,27.5090353 8.6035814,26.0782941 C6.48016279,24.6482824 6.01602326,21.9016824 7.5665814,19.9428471 C9.11713953,17.9840118 12.094907,17.5562118 14.2179302,18.9865882 C16.3413488,20.4166 16.8054884,23.1632 15.2549302,25.1224 L15.2549302,25.1224 Z M3.53323256,11.5932706 C4.34844186,9.2876 7.03523256,8.02827059 9.53462791,8.78065882 C12.034814,9.53304706 13.3991628,12.0112235 12.5831628,14.3168941 C11.7679535,16.6229294 9.08155814,17.8818941 6.58176744,17.1295059 C4.08237209,16.3774824 2.71762791,13.8989412 3.53323256,11.5932706 L3.53323256,11.5932706 Z M16.8881163,2.65323529 C19.517186,2.65323529 21.6485116,4.61863529 21.6485116,7.04429412 C21.6485116,9.46995294 19.517186,11.4353529 16.8881163,11.4353529 C14.2594419,11.4353529 12.1277209,9.46995294 12.1277209,7.04429412 C12.1277209,4.61863529 14.2590465,2.65323529 16.8881163,2.65323529 L16.8881163,2.65323529 Z M29.8863953,5.62048235 C28.4255814,5.97825882 26.8086047,5.74557647 25.4984186,4.85277647 C24.1862558,3.95815294 23.4702791,2.59889412 23.4141395,1.20389412 C21.4085349,0.428894118 19.2072326,0 16.896814,0 C14.6674419,0 12.5408605,0.402270588 10.592186,1.12584706 C10.5143023,2.51902353 9.77855814,3.86807059 8.45493023,4.74482353 C7.13248837,5.62121176 5.51393023,5.8342 4.05865116,5.45891765 C1.53039535,8.18363529 0,11.7198235 0,15.5875294 C0,15.9598941 0.019372093,16.3278824 0.0466511628,16.6936824 C1.45844186,17.1896824 2.62313953,18.2487882 3.12206977,19.6780706 C3.62139535,21.1088118 3.34386047,22.5971765 2.50888372,23.7605882 C4.80586047,27.1939294 8.50553488,29.7414 12.8717674,30.7261059 C13.8162558,29.6367294 15.2667907,28.9368588 16.896814,28.9368588 C18.5260465,28.9368588 19.9773721,29.6367294 20.9218605,30.7264706 C25.2117907,29.7589059 28.8565116,27.2818235 31.161,23.9382 C30.3446047,22.7649412 30.0896047,21.2743882 30.6094884,19.8513059 C31.1293721,18.4278588 32.3102791,17.3826118 33.729186,16.9052118 C33.7687209,16.4704824 33.7936279,16.0313765 33.7936279,15.5878941 C33.7940233,11.7964118 32.3256977,8.32222353 29.8863953,5.62048235 L29.8863953,5.62048235 Z" id="Fill-1" fill="#000000" mask="url(#mask-2)"></path>
                    </g>
                </g>
            </g>
        </g>
    </g>
</svg>